<svg version="1.1" xmlns="http://www.w3.org/2000/svg" xmlns:xlink="http://www.w3.org/1999/xlink" width="508" height="64" viewBox="0,0,508,64"><g transform="translate(13.0625,7)"><g data-paper-data="{&quot;isPaintingLayer&quot;:true}" stroke-linejoin="miter" stroke-miterlimit="10" stroke-dasharray="" stroke-dashoffset="0" style="mix-blend-mode: normal"><path d="M-13.0625,57v-64h508v64z" fill="#00a1e6" fill-rule="nonzero" stroke="#000000" stroke-width="0" stroke-linecap="butt"/><g fill="none" fill-rule="nonzero"><path d="M214.5,28.5h237" stroke="#000000" stroke-width="40" stroke-linecap="round"/><path d="M214.5,28.5h237" stroke="#ffffff" stroke-width="35" stroke-linecap="round"/><g stroke="#000000" stroke-width="2.5"><path d="M205.5421,24.87664c0,-3.81167 3.08997,-6.90164 6.90164,-6.90164c3.81167,0 6.90164,3.08997 6.90164,6.90164c0,3.81167 -3.08997,6.90164 -6.90164,6.90164c-3.81167,0 -6.90164,-3.08997 -6.90164,-6.90164z" stroke-linecap="butt"/><path d="M217.94588,30.51298l8.51202,8.51202" stroke-linecap="round"/></g></g><g stroke-linecap="square"><path d="M15.33072,19.72057v0c0,-2.42445 1.9654,-4.38985 4.38984,-4.38985h117.55888v0c1.16426,0 2.28084,0.4625 3.1041,1.28575c0.82325,0.82326 1.28575,1.93984 1.28575,3.1041v17.55887c0,2.42445 -1.96541,4.38985 -4.38985,4.38985h-117.55888c-2.42444,0 -4.38984,-1.9654 -4.38984,-4.38985z" fill="#00a1e6" fill-rule="evenodd" stroke="#000000" stroke-width="2.5"/><path d="M22.97817,21.2656l3.45313,0.01563c1.90625,0 3.57812,0.6875 5.01562,2.0625c1.44792,1.36458 2.17188,3.05208 2.17188,5.0625c0,2 -0.70833,3.71354 -2.125,5.14063c-1.40625,1.42709 -3.11458,2.14064 -5.125,2.14064h-3.40625c-0.90625,0 -1.48959,-0.21875 -1.75,-0.65625c-0.17709,-0.32292 -0.26562,-0.78126 -0.26562,-1.37501v-10.375c0,-0.3125 0.01041,-0.55208 0.03125,-0.71875c0.02084,-0.16667 0.09375,-0.36458 0.21875,-0.59375c0.25,-0.46875 0.84375,-0.70312 1.78125,-0.70312zM26.4313,31.62497c0.80209,0 1.52084,-0.29687 2.15625,-0.89062c0.64584,-0.59375 0.96875,-1.33854 0.96875,-2.23437c0,-0.90625 -0.31771,-1.66146 -0.95312,-2.26562c-0.625,-0.60417 -1.35416,-0.90625 -2.1875,-0.90625h-1.42187v6.29688zM34.08092,23.29685c0,-0.30208 0.01042,-0.53646 0.03125,-0.70312c0.02083,-0.17708 0.09375,-0.38021 0.21875,-0.60937c0.25,-0.46875 0.84375,-0.70312 1.78125,-0.70312c1.05208,0 1.6875,0.31771 1.90625,0.95313c0.07292,0.23958 0.10938,0.59896 0.10938,1.07813v10.375c0,0.3125 -0.01042,0.55209 -0.03125,0.71876c-0.02083,0.16667 -0.09375,0.36458 -0.21875,0.59375c-0.25,0.46875 -0.84375,0.70313 -1.78125,0.70313c-1.0625,0 -1.69271,-0.31771 -1.89062,-0.95312c-0.08333,-0.23958 -0.125,-0.59896 -0.125,-1.07814zM47.59431,31.43747l0.32813,-0.25c0.48958,-0.29167 0.85417,-0.4375 1.09375,-0.4375c0.52083,0 1.04167,0.40625 1.5625,1.21875c0.32292,0.5 0.48438,0.92708 0.48438,1.28125c0,0.34375 -0.10937,0.63021 -0.32812,0.85938c-0.21875,0.21876 -0.44792,0.40105 -0.6875,0.54689c-0.23958,0.13542 -0.46875,0.27083 -0.6875,0.40625c-0.20833,0.13542 -0.64583,0.30729 -1.3125,0.51563c-0.66667,0.20833 -1.3125,0.3125 -1.9375,0.3125c-0.625,0 -1.25521,-0.08333 -1.89062,-0.25c-0.63542,-0.16667 -1.29167,-0.4375 -1.96875,-0.8125c-0.66667,-0.38542 -1.27083,-0.85939 -1.8125,-1.42189c-0.54167,-0.5625 -0.98437,-1.27604 -1.32812,-2.14062c-0.34375,-0.875 -0.51562,-1.82292 -0.51562,-2.84375c0,-1.02083 0.17188,-1.94792 0.51563,-2.78125c0.34375,-0.83333 0.78125,-1.52083 1.3125,-2.0625c0.53125,-0.55208 1.14063,-1.01042 1.82813,-1.375c1.27083,-0.70833 2.55208,-1.0625 3.84375,-1.0625c0.625,0 1.25521,0.09896 1.89063,0.29688c0.63542,0.1875 1.11979,0.38021 1.45313,0.57813l0.4375,0.26563c0.23958,0.14583 0.42708,0.26563 0.5625,0.35938c0.42708,0.34375 0.64063,0.73438 0.64063,1.17188c0,0.42708 -0.15625,0.84896 -0.46875,1.26563c-0.5625,0.78125 -1.09896,1.17188 -1.60937,1.17188c-0.29167,0 -0.68229,-0.16667 -1.17187,-0.5c-0.45833,-0.36458 -1.07812,-0.54687 -1.85937,-0.54687c-0.72917,0 -1.45312,0.25521 -2.17187,0.76563c-0.32292,0.23958 -0.59896,0.58333 -0.82812,1.03125c-0.21875,0.4375 -0.32812,0.94271 -0.32812,1.51563c0,0.5625 0.10938,1.06771 0.32813,1.51563c0.22917,0.4375 0.51042,0.78646 0.84375,1.04688c0.69792,0.48958 1.41667,0.73438 2.15625,0.73438c0.35417,0 0.68229,-0.04167 0.98438,-0.125c0.30208,-0.09375 0.51563,-0.17708 0.64063,-0.25zM52.8088,21.2656h10.375c0.45834,0 0.81771,0.06771 1.07813,0.20313c0.26041,0.125 0.43229,0.32292 0.51563,0.59375c0.08334,0.26042 0.125,0.57292 0.125,0.9375c0,0.36458 -0.04166,0.67708 -0.125,0.9375c-0.08334,0.26042 -0.24479,0.44792 -0.48437,0.5625c-0.28125,0.14583 -0.65625,0.21875 -1.125,0.21875h-3.1875v9c0,0.3125 -0.01562,0.55209 -0.04687,0.71876c-0.02083,0.16667 -0.09375,0.375 -0.21875,0.625c-0.125,0.23958 -0.33854,0.40625 -0.64062,0.5c-0.30208,0.09375 -0.66667,0.14063 -1.09375,0.14063c-0.42708,0 -0.79167,-0.04687 -1.09375,-0.14062c-0.29167,-0.09375 -0.5,-0.26562 -0.625,-0.51562c-0.125,-0.25 -0.20312,-0.45833 -0.23437,-0.625c-0.02083,-0.16667 -0.03125,-0.40626 -0.03125,-0.71876v-8.98437h-3.20312c-0.45833,0 -0.81771,-0.0625 -1.07812,-0.1875c-0.26042,-0.13542 -0.43229,-0.33333 -0.51562,-0.59375c-0.08333,-0.27083 -0.125,-0.58854 -0.125,-0.95312c0,-0.36458 0.04167,-0.67187 0.125,-0.92187c0.08333,-0.26042 0.24479,-0.45833 0.48438,-0.59375c0.29167,-0.13542 0.66667,-0.20312 1.125,-0.20312zM65.1809,23.29685c0,-0.30208 0.01041,-0.53646 0.03125,-0.70312c0.02084,-0.17708 0.09375,-0.38021 0.21875,-0.60937c0.25,-0.46875 0.84375,-0.70312 1.78125,-0.70312c1.05209,0 1.6875,0.31771 1.90625,0.95313c0.07291,0.23958 0.10938,0.59896 0.10938,1.07813v10.375c0,0.3125 -0.01041,0.55209 -0.03125,0.71876c-0.02084,0.16667 -0.09375,0.36458 -0.21875,0.59375c-0.25,0.46875 -0.84375,0.70313 -1.78125,0.70313c-1.0625,0 -1.69271,-0.31771 -1.89062,-0.95312c-0.08334,-0.23958 -0.125,-0.59896 -0.125,-1.07814zM76.75683,21.10935c1.94791,0 3.63541,0.70313 5.0625,2.10938c1.4375,1.40625 2.15625,3.14583 2.15625,5.21875c0,2.0625 -0.6875,3.82813 -2.0625,5.29688c-1.36459,1.45834 -3.04687,2.18751 -5.04687,2.18751c-1.98959,0 -3.68229,-0.71876 -5.07812,-2.15626c-1.39584,-1.4375 -2.09375,-3.15625 -2.09375,-5.15625c0,-1.08333 0.19271,-2.09896 0.57813,-3.04687c0.39584,-0.94792 0.92188,-1.73958 1.57813,-2.375c0.65625,-0.64583 1.41146,-1.15104 2.26563,-1.51562c0.85416,-0.375 1.73438,-0.5625 2.64063,-0.5625zM73.7412,28.5156c0,1 0.31771,1.8125 0.95313,2.4375c0.64584,0.61458 1.35938,0.92188 2.14063,0.92188c0.78125,0 1.48959,-0.29687 2.125,-0.89062c0.63541,-0.60417 0.95313,-1.41667 0.95313,-2.4375c0,-1.03125 -0.32291,-1.85417 -0.96875,-2.46875c-0.63541,-0.61458 -1.34375,-0.92187 -2.125,-0.92187c-0.78125,0 -1.48959,0.3125 -2.125,0.9375c-0.63541,0.61458 -0.95312,1.42188 -0.95312,2.42188zM93.30917,22.0156c0.15625,-0.29167 0.38541,-0.48437 0.6875,-0.57812c0.3125,-0.09375 0.66146,-0.14062 1.04688,-0.14062c0.39584,0 0.72396,0.03646 0.98438,0.10938c0.27084,0.07292 0.47916,0.17708 0.625,0.3125c0.15625,0.125 0.27084,0.30208 0.34375,0.53125c0.08334,0.23958 0.125,0.59896 0.125,1.07813v10.35938c0,0.32292 -0.01562,0.56771 -0.04687,0.73439c-0.02084,0.15625 -0.08854,0.34896 -0.20312,0.57813c-0.25,0.46875 -0.84375,0.70313 -1.78125,0.70313c-0.54166,0 -0.93229,-0.04687 -1.17187,-0.14062c-0.23959,-0.09375 -0.44271,-0.25521 -0.60937,-0.48437c-2.79166,-3.71876 -4.40625,-5.8646 -4.84375,-6.43751v5.04688c0,0.32292 -0.01562,0.56771 -0.04687,0.73439c-0.02084,0.15625 -0.08854,0.34896 -0.20312,0.57813c-0.25,0.46875 -0.84375,0.70313 -1.78125,0.70313c-0.91666,0 -1.5,-0.23437 -1.75,-0.70312c-0.125,-0.22917 -0.19791,-0.43229 -0.21875,-0.60937c-0.02084,-0.18751 -0.03125,-0.4271 -0.03125,-0.71876v-10.42187c0,-0.53125 0.07291,-0.94271 0.21875,-1.23437c0.15625,-0.29167 0.38541,-0.48437 0.6875,-0.57812c0.3125,-0.09375 0.67188,-0.14062 1.07813,-0.14062c0.41666,0 0.75521,0.04167 1.01563,0.125c0.26041,0.08333 0.45834,0.1875 0.59375,0.3125c0.0625,0.05208 0.21875,0.22917 0.46875,0.53125c2.625,3.57292 4.15625,5.64063 4.59375,6.20313v-5.21875c0,-0.53125 0.07291,-0.94271 0.21875,-1.23437zM106.47607,22.4531l5.01563,10.40625c0.25,0.47917 0.375,0.85417 0.375,1.125c0,0.60417 -0.43229,1.1198 -1.29687,1.54689c-0.46875,0.23958 -0.86459,0.35938 -1.1875,0.35938c-0.3125,0 -0.57291,-0.07812 -0.78125,-0.23437c-0.20834,-0.15625 -0.35416,-0.30729 -0.4375,-0.45312c-0.08334,-0.14583 -0.19271,-0.34375 -0.32812,-0.59375l-0.85937,-1.81251h-4.70312l-0.85937,1.81251c-0.13541,0.26042 -0.24479,0.45833 -0.32812,0.59375c-0.08334,0.125 -0.22916,0.27083 -0.4375,0.4375c-0.20834,0.15625 -0.46875,0.23438 -0.78125,0.23438c-0.3125,0 -0.70834,-0.11979 -1.1875,-0.35937c-0.85416,-0.41667 -1.28125,-0.92709 -1.28125,-1.53126c0,-0.27083 0.11459,-0.64062 0.34375,-1.10937l5.04688,-10.42187c0.16666,-0.36458 0.41666,-0.65104 0.75,-0.85937c0.34375,-0.20833 0.70834,-0.3125 1.09375,-0.3125c0.83334,0 1.44791,0.39063 1.84375,1.17188zM104.61668,27.9531l-0.64062,1.32813h1.29688zM123.32623,32.85935c0.20834,0.5 0.3125,0.875 0.3125,1.125c0,0.63542 -0.46875,1.14585 -1.40625,1.53126c-0.4375,0.19792 -0.8125,0.29688 -1.125,0.29688c-0.30209,0 -0.55729,-0.07812 -0.76562,-0.23437c-0.20834,-0.16667 -0.36459,-0.32812 -0.46875,-0.48437c-0.13541,-0.26042 -0.58854,-1.32292 -1.35937,-3.18751l-0.32812,0.03125h-2v1.73438c0,0.29167 -0.01041,0.52605 -0.03125,0.70314c-0.02084,0.17708 -0.09375,0.38021 -0.21875,0.60938c-0.25,0.46875 -0.84375,0.70313 -1.78125,0.70313c-1.0625,0 -1.69271,-0.31771 -1.89062,-0.95312c-0.08334,-0.25001 -0.125,-0.60939 -0.125,-1.07814v-10.35937c0,-0.30208 0.01041,-0.53646 0.03125,-0.70312c0.02084,-0.17708 0.09375,-0.38021 0.21875,-0.60937c0.25,-0.46875 0.84375,-0.70312 1.78125,-0.70312h4.03125c1.17709,0 2.31771,0.42188 3.42188,1.26563c0.54166,0.41667 0.98438,0.98438 1.32813,1.70313c0.35416,0.70833 0.53125,1.49479 0.53125,2.35938c0,1.51042 -0.44271,2.69792 -1.32812,3.5625c0.20834,0.5 0.59896,1.39583 1.17188,2.6875zM116.1856,27.87497h2.01563c0.28125,0 0.55729,-0.10417 0.82813,-0.3125c0.28125,-0.20833 0.42188,-0.52083 0.42188,-0.9375c0,-0.42708 -0.14062,-0.75 -0.42187,-0.96875c-0.27084,-0.21875 -0.55729,-0.32812 -0.85937,-0.32812h-1.98437zM134.97496,21.60935c0.71875,0.48958 1.07813,1 1.07813,1.53125c0,0.3125 -0.16146,0.71354 -0.48437,1.20313l-3.96875,5.92188v3.45313c0,0.3125 -0.01562,0.5573 -0.04687,0.73439c-0.02084,0.16667 -0.09896,0.375 -0.23437,0.625c-0.125,0.25 -0.33854,0.42188 -0.64062,0.51563c-0.30209,0.09375 -0.67709,0.14063 -1.125,0.14063c-0.4375,0 -0.80729,-0.04687 -1.10937,-0.14062c-0.30209,-0.09375 -0.52084,-0.27083 -0.65625,-0.53125c-0.125,-0.26042 -0.20312,-0.47396 -0.23437,-0.64062c-0.02084,-0.16667 -0.03125,-0.41147 -0.03125,-0.73439v-3.42187l-3.96875,-5.92187c-0.32291,-0.48958 -0.48437,-0.89062 -0.48437,-1.20312c0,-0.53125 0.31771,-1.00521 0.95313,-1.42187c0.63541,-0.42708 1.10416,-0.64062 1.40625,-0.64062c0.3125,0 0.56771,0.06771 0.76563,0.20313c0.26041,0.16667 0.52084,0.45833 0.78125,0.875l2.59375,4.125l2.57813,-4.125c0.25,-0.41667 0.48959,-0.69792 0.71875,-0.84375c0.23959,-0.15625 0.51041,-0.23437 0.8125,-0.23437c0.30209,0 0.73438,0.17708 1.29688,0.53125z" fill="#000000" fill-rule="nonzero" stroke="none" stroke-width="1"/></g></g></g></svg>